<svg xmlns="http://www.w3.org/2000/svg" width="100" height="100" enable-background="new 0 0 100 100" viewBox="0 0 100 100" id="social"><path d="M50,0C22.386,0,0,22.386,0,50c0,27.614,22.386,50,50,50c27.614,0,50-22.386,50-50C100,22.386,77.614,0,50,0z M66.764,28.385
	c0,0.745-0.604,1.349-1.348,1.349l-5.779,0.002c-3.984,0-4.713,1.553-4.713,4.611v6.363h10.089c0.358,0,0.702,0.142,0.955,0.396
	c0.253,0.253,0.395,0.596,0.395,0.954l-0.004,10.876c0,0.745-0.604,1.349-1.349,1.349H54.924v27.443
	c0,0.745-0.604,1.349-1.349,1.349H42.322c-0.745,0-1.349-0.604-1.349-1.349V54.284h-8.625c-0.745,0-1.349-0.604-1.349-1.349V42.06
	c0-0.745,0.604-1.35,1.349-1.35h8.625v-7.506c0-9.89,6.228-16.28,15.866-16.28l8.579,0.014c0.744,0.001,1.347,0.605,1.347,1.349
	V28.385z"></path></svg>